<svg xmlns="http://www.w3.org/2000/svg" viewBox="0 0 128 128">
  <g stroke="#4a3728" stroke-width="3.2" stroke-linejoin="round" stroke-linecap="round">
    <!-- ===== RED CAPE (behind body) ===== -->
    <path d="M46,78 L72,78 L93,118 L70,109 L59,116 L48,109 L25,118 Z" fill="#ff2020"/>
    <path d="M48,80 L70,80 L78,98 L40,98 Z" fill="#d40000" stroke="none"/>

    <!-- ===== EARS (tall white, slightly lowered) ===== -->
    <path d="M53,58 C50,44 49,30 49,18 C54,17 58,22 58,34 C58,44 58,52 58,57 Z" fill="#fdfdfb"/>
    <path d="M61,57 C61,52 61,44 61,34 C61,22 65,17 70,18 C70,30 69,44 66,58 Z" fill="#fdfdfb"/>
    <path d="M53,52 C52,42 52,32 52,24" fill="none" stroke="#ffc2cf" stroke-width="3"/>
    <path d="M67,52 C67,42 67,32 67,24" fill="none" stroke="#ffc2cf" stroke-width="3"/>

    <!-- ===== BODY (braced) ===== -->
    <path d="M44,72 C36,82 35,100 39,110 C41,116 45,120 48,121 C49,123 52,123 53,121
             C55,118 57,116 59,116 C61,116 63,118 65,121 C66,123 69,123 70,121
             C73,120 77,116 79,110 C83,100 82,82 74,72 Z" fill="#fdfdfb"/>
    <path d="M42,105 C50,113 68,113 76,105 C75,112 68,116 59,116 C50,116 43,112 42,105 Z" fill="#efece4" stroke="none"/>

    <!-- ===== ARMS RAISED IN FRONT (guarding) ===== -->
    <path d="M46,78 Q49,70 55,68" fill="none" stroke="#4a3728" stroke-width="11"/>
    <path d="M46,78 Q49,70 55,68" fill="none" stroke="#fdfdfb" stroke-width="7"/>
    <path d="M72,78 Q69,70 63,68" fill="none" stroke="#4a3728" stroke-width="11"/>
    <path d="M72,78 Q69,70 63,68" fill="none" stroke="#fdfdfb" stroke-width="7"/>

    <!-- ===== HEAD (big round white) ===== -->
    <circle cx="59" cy="54" r="22" fill="#fdfdfb"/>

    <!-- ===== FACE (worried) ===== -->
    <ellipse cx="51" cy="55" rx="5" ry="6.2" fill="#1a1a1a" stroke="none"/>
    <ellipse cx="67" cy="55" rx="5" ry="6.2" fill="#1a1a1a" stroke="none"/>
    <circle cx="49.3" cy="52.3" r="1.8" fill="#ffffff" stroke="none"/>
    <circle cx="65.3" cy="52.3" r="1.8" fill="#ffffff" stroke="none"/>
    <ellipse cx="44" cy="62" rx="4.6" ry="3" fill="#ffb0d8" stroke="none"/>
    <ellipse cx="74" cy="62" rx="4.6" ry="3" fill="#ffb0d8" stroke="none"/>
    <path d="M56,61 L62,61 L59,64 Z" fill="#3a2d24" stroke-width="1.6"/>
    <path d="M54,66 Q59,63 64,66" fill="none" stroke-width="2.2"/>

    <!-- ===== PINK BOW TIE (at neck) ===== -->
    <path d="M59,80 L48,74 L48,86 Z" fill="#f4a6e0"/>
    <path d="M59,80 L70,74 L70,86 Z" fill="#f4a6e0"/>
    <rect x="55" y="76" width="8" height="8" rx="2" fill="#e97fd0"/>
  </g>
</svg>
